<svg xmlns="http://www.w3.org/2000/svg" width="763" height="167" viewBox="0 0 763 167">
  <g id="bugsee" transform="translate(-159 -927)">
    <g id="Rectangle_4" data-name="Rectangle 4" transform="translate(159 927)" fill="#fff" stroke="#707070" stroke-width="1">
      <rect width="763" height="167" stroke="none"/>
      <rect x="0.5" y="0.5" width="762" height="166" fill="none"/>
    </g>
    <g id="Page-3" transform="translate(424 909.936)">
      <g id="Logo-with-text-Copy" transform="translate(18 29.064)">
        <ellipse id="Oval-1" cx="16.525" cy="14.755" rx="16.525" ry="14.755" transform="translate(119.217 16.449)" fill="#fff"/>
        <path id="Combined-Shape" d="M156.077,36.881q2.651,1.09,5.225,2.326a11.967,11.967,0,0,1,8.163-3.59,11.965,11.965,0,0,1,1.555,8.936,99.685,99.685,0,0,1,42.767,56.021h-7.578a40.016,40.016,0,0,0-76.269,16.682,39.542,39.542,0,0,0,1.706,11.524H118.291v-12.3h-3.962v12.3H102.3v-12.3H86.452v12.3H74.417v-12.3H70.455v12.3H58.42v-12.3H50.5v12.3H18c0-54.894,44.742-99.394,99.935-99.394a100.471,100.471,0,0,1,28.2,4.013,12.033,12.033,0,0,1,5.277-4.333,11.99,11.99,0,0,1,4.665,7.817ZM153.511,69.54a9.94,9.94,0,1,0-9.994-9.939A9.966,9.966,0,0,0,153.511,69.54Zm3.6-2.783a3.976,3.976,0,1,1,4-3.976A3.987,3.987,0,0,1,157.109,66.757Z" transform="translate(-18 -29.064)" fill="#fb5252" fill-rule="evenodd"/>
        <path id="BUGSEE-2" data-name="BUGSEE" d="M18.324,159.98v-38.6h13.23a23.216,23.216,0,0,1,5.621.623,11.852,11.852,0,0,1,4.215,1.9,8.307,8.307,0,0,1,2.638,3.247,11.052,11.052,0,0,1,.915,4.679,8.332,8.332,0,0,1-1.432,4.772,9.217,9.217,0,0,1-4.189,3.289,9.21,9.21,0,0,1,2.9,1.311,8.106,8.106,0,0,1,2.041,2.029,8.584,8.584,0,0,1,1.206,2.571,10.666,10.666,0,0,1,.4,2.917,12.2,12.2,0,0,1-.915,4.891,9.211,9.211,0,0,1-2.651,3.526,11.705,11.705,0,0,1-4.215,2.135,20.229,20.229,0,0,1-5.607.715Zm6.708-17.419v12.063h7.45a9.107,9.107,0,0,0,2.9-.424,5.805,5.805,0,0,0,2.108-1.206,4.966,4.966,0,0,0,1.273-1.87,6.584,6.584,0,0,0,.424-2.413,6.4,6.4,0,0,0-1.511-4.507q-1.511-1.645-4.9-1.644Zm0-4.932h6.575a7.6,7.6,0,0,0,4.892-1.418,4.861,4.861,0,0,0,1.763-4.017,4.927,4.927,0,0,0-1.63-4.136,8.232,8.232,0,0,0-5.077-1.272H25.032Zm55.782-16.251V147.2a13.976,13.976,0,0,1-1.127,5.806,11.72,11.72,0,0,1-3.089,4.162,13.122,13.122,0,0,1-4.587,2.506,18.459,18.459,0,0,1-5.621.835,18.953,18.953,0,0,1-5.74-.835,12.83,12.83,0,0,1-4.573-2.506,11.458,11.458,0,0,1-3.022-4.162,14.421,14.421,0,0,1-1.087-5.806V121.378h6.681V147.2a10.47,10.47,0,0,0,.544,3.566,6.48,6.48,0,0,0,1.551,2.479,6.16,6.16,0,0,0,2.439,1.445,10.377,10.377,0,0,0,3.208.464,10.5,10.5,0,0,0,3.221-.464,6.038,6.038,0,0,0,2.439-1.445,6.564,6.564,0,0,0,1.538-2.479,10.47,10.47,0,0,0,.544-3.566V121.378Zm36.746,33.591a13.357,13.357,0,0,1-1.7,1.763,12.369,12.369,0,0,1-2.8,1.8,19.858,19.858,0,0,1-4.109,1.4,24.584,24.584,0,0,1-5.634.57,17.412,17.412,0,0,1-6.668-1.245,14.45,14.45,0,0,1-5.21-3.606,16.47,16.47,0,0,1-3.38-5.806,23.773,23.773,0,0,1-1.206-7.874v-2.545a26.205,26.205,0,0,1,1.087-7.861,16.458,16.458,0,0,1,3.128-5.846,13.288,13.288,0,0,1,4.984-3.632,17.008,17.008,0,0,1,6.681-1.245,18.688,18.688,0,0,1,6.151.915,12.654,12.654,0,0,1,4.428,2.558,11.932,11.932,0,0,1,2.837,3.911,17.132,17.132,0,0,1,1.379,4.971h-6.575a11.324,11.324,0,0,0-.8-2.783,6.768,6.768,0,0,0-1.524-2.2,6.885,6.885,0,0,0-2.386-1.459,9.674,9.674,0,0,0-3.38-.53,9,9,0,0,0-4.1.875,7.639,7.639,0,0,0-2.89,2.559,12.107,12.107,0,0,0-1.723,4.136,24.757,24.757,0,0,0-.57,5.581v2.6a20.875,20.875,0,0,0,.689,5.634,12.021,12.021,0,0,0,1.975,4.123,8.522,8.522,0,0,0,3.128,2.545,9.622,9.622,0,0,0,4.176.875,16.731,16.731,0,0,0,2.956-.225,10.658,10.658,0,0,0,2.081-.57,6.122,6.122,0,0,0,1.392-.755,6.92,6.92,0,0,0,.888-.781v-7.557h-7.954v-5.09H117.56Zm27.545-4.932a5.864,5.864,0,0,0-.345-2.081,4.112,4.112,0,0,0-1.258-1.683,10.447,10.447,0,0,0-2.519-1.472,38.6,38.6,0,0,0-4.123-1.471,39.819,39.819,0,0,1-5.09-1.883,17.566,17.566,0,0,1-4.017-2.466,10.561,10.561,0,0,1-2.638-3.234,8.924,8.924,0,0,1-.955-4.189,9.358,9.358,0,0,1,1-4.3,10.177,10.177,0,0,1,2.8-3.394,13.356,13.356,0,0,1,4.321-2.227,18.435,18.435,0,0,1,5.568-.794,17.108,17.108,0,0,1,5.859.941,13.113,13.113,0,0,1,4.387,2.559,11.135,11.135,0,0,1,2.744,3.751,11.009,11.009,0,0,1,.955,4.547H145.1a7.38,7.38,0,0,0-.437-2.585,5.368,5.368,0,0,0-1.339-2.042,6.185,6.185,0,0,0-2.28-1.339,10.011,10.011,0,0,0-3.261-.477,10.54,10.54,0,0,0-3.075.4,6.156,6.156,0,0,0-2.161,1.113,4.4,4.4,0,0,0-1.272,1.7,5.434,5.434,0,0,0-.411,2.12,4.257,4.257,0,0,0,2.028,3.58,21.65,21.65,0,0,0,6.191,2.651,35.848,35.848,0,0,1,5.647,2.121,16.158,16.158,0,0,1,3.964,2.637,9.554,9.554,0,0,1,2.347,3.314,10.688,10.688,0,0,1,.768,4.149,9.728,9.728,0,0,1-.968,4.389,9.365,9.365,0,0,1-2.757,3.313,12.948,12.948,0,0,1-4.334,2.1,20.621,20.621,0,0,1-5.674.728,20.287,20.287,0,0,1-5.488-.755,15.517,15.517,0,0,1-4.851-2.28,11.89,11.89,0,0,1-3.461-3.8,10.549,10.549,0,0,1-1.311-5.355h6.707a7.032,7.032,0,0,0,.649,3.142A5.874,5.874,0,0,0,132.1,153.6a7.452,7.452,0,0,0,2.665,1.219,13.634,13.634,0,0,0,3.313.385,8.274,8.274,0,0,0,5.263-1.419A4.574,4.574,0,0,0,145.1,150.037Zm35.156-7.291H164.406v11.878h18.532v5.355H157.7v-38.6h25.054v5.408H164.406v10.658h15.855Zm30.7,0H195.107v11.878h18.532v5.355H188.4v-38.6h25.054v5.408H195.107v10.658h15.854Z" transform="translate(-17.942 -12.509)" fill="#1e3046" fill-rule="evenodd"/>
      </g>
    </g>
  </g>
</svg>
