<svg xmlns="http://www.w3.org/2000/svg" width="763" height="167" viewBox="0 0 763 167">
  <g id="Interview_cake" data-name="Interview cake" transform="translate(-159 -645)">
    <g id="Rectangle_2" data-name="Rectangle 2" transform="translate(159 645)" fill="#fff" stroke="#707070" stroke-width="1">
      <rect width="763" height="167" stroke="none"/>
      <rect x="0.5" y="0.5" width="762" height="166" fill="none"/>
    </g>
    <g id="Layer_2" transform="translate(232.8 677.3)">
      <path id="Path_1" data-name="Path 1" d="M100.3,72.82V22.1h10.784V72.82Z" transform="translate(15.193 1.739)" fill="#555"/>
      <path id="Path_2" data-name="Path 2" d="M152.189,71.065H141.642V48.43a10.574,10.574,0,0,0-1.541-6.281,5.626,5.626,0,0,0-4.74-2.133c-2.963,0-5.1.948-6.4,2.963s-2.015,5.214-2.015,9.836v18.25H116.4V32.313h8.058l1.422,4.977h.593a11.3,11.3,0,0,1,4.859-4.266,16.25,16.25,0,0,1,7.11-1.422c4.5,0,7.94,1.185,10.31,3.674s3.555,5.925,3.555,10.547Z" transform="translate(18.172 3.495)" fill="#555"/>
      <path id="Path_3" data-name="Path 3" d="M169.583,64.544a25.188,25.188,0,0,0,6.636-1.185V71.18a22.837,22.837,0,0,1-9.717,1.778q-6.4,0-9.243-3.2c-1.9-2.133-2.844-5.333-2.963-9.6V41.435h-5.1v-4.5l5.807-3.555,3.081-8.177h6.755v8.3h10.9v7.94h-10.9V60.159a3.851,3.851,0,0,0,1.3,3.318A4.606,4.606,0,0,0,169.583,64.544Z" transform="translate(24.242 2.313)" fill="#555"/>
      <path id="Path_4" data-name="Path 4" d="M193.409,71.792c-6.281,0-11.139-1.778-14.695-5.214s-5.214-8.3-5.214-14.695c0-6.518,1.659-11.5,4.859-15.05s7.7-5.333,13.51-5.333c5.451,0,9.717,1.541,12.8,4.74s4.622,7.466,4.622,12.917v5.1h-25a10.632,10.632,0,0,0,2.607,6.992,8.994,8.994,0,0,0,6.992,2.489,30.772,30.772,0,0,0,6.636-.711,33.081,33.081,0,0,0,6.518-2.37v8.177a21.9,21.9,0,0,1-5.925,2.015A29.164,29.164,0,0,1,193.409,71.792Zm-1.541-32.707a6.558,6.558,0,0,0-5.214,2.133,9.974,9.974,0,0,0-2.252,6.044h14.813a8.513,8.513,0,0,0-2.015-6.044,7.427,7.427,0,0,0-5.333-2.133Z" transform="translate(28.739 3.479)" fill="#555"/>
      <path id="Path_5" data-name="Path 5" d="M229.386,31.6a18.087,18.087,0,0,1,3.555.356l-.83,9.954a14.477,14.477,0,0,0-3.081-.356,11.484,11.484,0,0,0-7.94,2.607,9.47,9.47,0,0,0-2.844,7.347V71.3H207.7V32.311h8.058l1.541,6.518h.474a14.661,14.661,0,0,1,4.859-5.214A12.514,12.514,0,0,1,229.386,31.6Z" transform="translate(35.067 3.497)" fill="#555"/>
      <path id="Path_6" data-name="Path 6" d="M244.695,70.951,230,32.2h11.139l7.466,22.16a36.2,36.2,0,0,1,1.541,7.94h.237a36.2,36.2,0,0,1,1.541-7.94l7.466-22.16H270.41L255.6,71.07h-10.9Z" transform="translate(39.194 3.609)" fill="#555"/>
      <path id="Path_7" data-name="Path 7" d="M268.1,24.514c0-3.437,1.9-5.214,5.807-5.214,3.792,0,5.807,1.778,5.807,5.214a4.91,4.91,0,0,1-1.422,3.792,6.207,6.207,0,0,1-4.266,1.422C270,29.728,268.1,28.069,268.1,24.514Zm11.021,48.943H268.574V34.587h10.547Z" transform="translate(46.245 1.221)" fill="#555"/>
      <path id="Path_8" data-name="Path 8" d="M301.527,71.792c-6.281,0-11.139-1.778-14.695-5.214s-5.333-8.3-5.333-14.695c0-6.518,1.659-11.5,4.859-15.05s7.7-5.333,13.51-5.333c5.451,0,9.717,1.541,12.8,4.74s4.622,7.466,4.622,12.917v5.1H292.165a10.632,10.632,0,0,0,2.607,6.992,8.994,8.994,0,0,0,6.992,2.489,30.772,30.772,0,0,0,6.636-.711,33.081,33.081,0,0,0,6.518-2.37v8.177a21.9,21.9,0,0,1-5.925,2.015A25.29,25.29,0,0,1,301.527,71.792Zm-1.422-32.707a6.972,6.972,0,0,0-5.333,2.133,9.974,9.974,0,0,0-2.252,6.044h14.813a8.513,8.513,0,0,0-2.015-6.044A6.969,6.969,0,0,0,300.105,39.084Z" transform="translate(48.724 3.479)" fill="#555"/>
      <path id="Path_9" data-name="Path 9" d="M348.537,70.951l-2.963-13.628-4.029-17.065h-.237L334.2,70.951H322.821L311.8,32.2h10.547l4.5,17.183c.711,3.081,1.422,7.347,2.252,12.8h.237a68.429,68.429,0,0,1,1.185-8.414l.593-2.963,4.74-18.605H347.47l4.5,18.605c.119.474.237,1.3.474,2.252s.355,2.015.593,3.2a31.945,31.945,0,0,1,.474,3.318c.119,1.067.237,1.9.237,2.607h.237c.237-1.659.593-3.911,1.067-6.873.593-2.963.948-4.859,1.185-5.925L360.861,32.2H371.29L360.15,71.07Z" transform="translate(54.331 3.609)" fill="#555"/>
      <path id="Path_10" data-name="Path 10" d="M399.121,30.508a10.9,10.9,0,0,0-9.362,4.622c-2.252,3.081-3.318,7.229-3.318,12.68,0,11.377,4.266,16.946,12.8,16.946a40.442,40.442,0,0,0,12.917-2.607v9.006a34.937,34.937,0,0,1-13.984,2.607c-7.347,0-13.036-2.252-16.946-6.755S375.3,56.1,375.3,47.691a31.306,31.306,0,0,1,2.844-13.865,20.6,20.6,0,0,1,8.3-9.125,24.066,24.066,0,0,1,12.68-3.2,33.669,33.669,0,0,1,14.813,3.555L410.5,33.826a57.894,57.894,0,0,0-5.688-2.37A15.934,15.934,0,0,0,399.121,30.508Z" transform="translate(66.081 1.627)" fill="#555"/>
      <path id="Path_11" data-name="Path 11" d="M436.519,71.081,434.5,65.867h-.237a14.614,14.614,0,0,1-5.451,4.622,17.533,17.533,0,0,1-7.347,1.3,11.569,11.569,0,0,1-8.769-3.2c-2.133-2.133-3.2-5.214-3.2-9.125,0-4.148,1.422-7.11,4.266-9.125s7.229-3.081,13.036-3.2l6.755-.237V45.247c0-3.911-2.015-5.925-6.044-5.925a26.58,26.58,0,0,0-10.9,2.844l-3.555-7.11A32.48,32.48,0,0,1,427.868,31.5c5.214,0,9.243,1.185,11.969,3.437s4.148,5.688,4.148,10.31V71.2h-7.466Zm-3.081-18.013-4.148.119a12.846,12.846,0,0,0-6.873,1.659,5.224,5.224,0,0,0-2.252,4.622c0,2.963,1.659,4.5,5.1,4.5a8,8,0,0,0,5.925-2.133,7.681,7.681,0,0,0,2.252-5.688Z" transform="translate(72.411 3.479)" fill="#555"/>
      <path id="Path_12" data-name="Path 12" d="M454.754,52.226l4.622-5.925,10.9-11.851h11.969L466.842,51.278,483.2,73.2H470.99L459.85,57.44l-4.5,3.674V73.2H444.8V19.4h10.547V43.575l-.593,8.769Z" transform="translate(78.943 1.24)" fill="#555"/>
      <path id="Path_13" data-name="Path 13" d="M496.527,71.792c-6.281,0-11.139-1.778-14.695-5.214s-5.333-8.3-5.333-14.695c0-6.518,1.659-11.5,4.859-15.05s7.821-5.333,13.51-5.333c5.451,0,9.717,1.541,12.8,4.74s4.622,7.466,4.622,12.917v5.1H487.165a10.632,10.632,0,0,0,2.607,6.992,8.994,8.994,0,0,0,6.992,2.489,30.772,30.772,0,0,0,6.636-.711,33.082,33.082,0,0,0,6.518-2.37v8.177a21.9,21.9,0,0,1-5.925,2.015A25.29,25.29,0,0,1,496.527,71.792Zm-1.422-32.707a6.972,6.972,0,0,0-5.333,2.133,9.974,9.974,0,0,0-2.252,6.044h14.813a8.513,8.513,0,0,0-2.015-6.044A6.969,6.969,0,0,0,495.105,39.084Z" transform="translate(84.81 3.479)" fill="#555"/>
      <path id="Path_14" data-name="Path 14" d="M70.579,12.7c-2.489.237-4.977.474-7.347.711-15.287,1.778-28.441,5.333-38.4,9.954A71.377,71.377,0,0,0,18.2,26.921V71.479L90.607,89.136V43.985ZM83.97,80.841,24.836,66.383V52.992L83.97,67.686Zm0-19.909L24.836,46.237V32.964L83.97,47.659Z" transform="translate(0 0)" fill="#5bc0de"/>
    </g>
  </g>
</svg>
